<?xml version="1.0" encoding="UTF-8" standalone="no"?>
<!DOCTYPE svg PUBLIC "-//W3C//DTD SVG 1.1//EN"
 "http://www.w3.org/Graphics/SVG/1.1/DTD/svg11.dtd">
<!-- Generated by graphviz version 2.40.1 (20161225.0304)
 -->
<!-- Title: gocallvis Pages: 1 -->
<svg width="288pt" height="462pt"
 viewBox="0.00 0.00 288.12 461.80" xmlns="http://www.w3.org/2000/svg" xmlns:xlink="http://www.w3.org/1999/xlink">
<g id="graph0" class="graph" transform="scale(1 1) rotate(0) translate(0 461.8)">
<title>gocallvis</title>
<polygon fill="#d3d3d3" stroke="transparent" points="0,0 0,-461.8 288.12,-461.8 288.12,0 0,0"/>
<text text-anchor="middle" x="87.338" y="-8.2" font-family="Arial" font-size="14.00" fill="#000000">command&#45;line&#45;arguments</text>
<g id="clust1" class="cluster">
<title>cluster_focus</title>
<polygon fill="#e6ecfa" stroke="#000000" stroke-width=".5" points="8,-32.8 8,-453.8 280.12,-453.8 280.12,-32.8 8,-32.8"/>
<text text-anchor="middle" x="144.06" y="-433.6" font-family="Arial" font-size="18.00" fill="#000000">main</text>
</g>
<g id="clust4" class="cluster">
<title>cluster_sync</title>
<g id="a_clust4"><a xlink:href="/?f=sync" xlink:title="package: sync">
<polygon fill="#e0ffe1" stroke="#000000" stroke-width=".8" points="135,-275.8 135,-415.8 272.12,-415.8 272.12,-275.8 135,-275.8"/>
<text text-anchor="middle" x="203.56" y="-397.4" font-family="Tahoma bold" font-size="16.00" fill="#000000">sync</text>
</a>
</g>
</g>
<g id="clust3" class="cluster">
<title>cluster_os</title>
<g id="a_clust3"><a xlink:href="/?f=os" xlink:title="package: os">
<polygon fill="#e0ffe1" stroke="#000000" stroke-width=".8" points="137.7125,-188.8 137.7125,-267.8 269.4075,-267.8 269.4075,-188.8 137.7125,-188.8"/>
<text text-anchor="middle" x="203.56" y="-249.4" font-family="Tahoma bold" font-size="16.00" fill="#000000">os</text>
</a>
</g>
</g>
<g id="clust2" class="cluster">
<title>cluster_chat/client/ui</title>
<g id="a_clust2"><a xlink:href="/?f=chat/client/ui" xlink:title="package: chat/client/ui">
<polygon fill="#ffffe0" stroke="#000000" stroke-width=".8" points="148.4113,-40.8 148.4113,-180.8 258.7087,-180.8 258.7087,-40.8 148.4113,-40.8"/>
<text text-anchor="middle" x="203.56" y="-162.4" font-family="Tahoma bold" font-size="16.00" fill="#000000">ui</text>
</a>
</g>
</g>
<!-- command&#45;line&#45;arguments.main -->
<g id="node1" class="node">
<title>command&#45;line&#45;arguments.main</title>
<g id="a_node1"><a xlink:title="command&#45;line&#45;arguments.main | defined in client.go:9&#10;at client.go:16: calling [(*os.File).WriteString]&#10;at client.go:18: calling [(*sync.WaitGroup).Add]&#10;at client.go:19: calling [(*sync.WaitGroup).Done]&#10;at client.go:20: calling [chat/client/ui.UserViewLoop]&#10;at client.go:23: calling [chat/client/ui.UserInputLoop]">
<path fill="#add8e6" stroke="#000000" stroke-width=".5" d="M58,-232.8C58,-232.8 28,-232.8 28,-232.8 22,-232.8 16,-226.8 16,-220.8 16,-220.8 16,-208.8 16,-208.8 16,-202.8 22,-196.8 28,-196.8 28,-196.8 58,-196.8 58,-196.8 64,-196.8 70,-202.8 70,-208.8 70,-208.8 70,-220.8 70,-220.8 70,-226.8 64,-232.8 58,-232.8"/>
<text text-anchor="middle" x="43" y="-210.6" font-family="Verdana" font-size="14.00" fill="#000000">main</text>
</a>
</g>
</g>
<!-- chat/client/ui.UserViewLoop -->
<g id="node2" class="node">
<title>chat/client/ui.UserViewLoop</title>
<g id="a_node2"><a xlink:title="chat/client/ui.UserViewLoop | defined in main.go:38">
<path fill="#ffe4b5" stroke="#000000" stroke-width="1.5" d="M238.8579,-84.8C238.8579,-84.8 168.2621,-84.8 168.2621,-84.8 162.2621,-84.8 156.2621,-78.8 156.2621,-72.8 156.2621,-72.8 156.2621,-60.8 156.2621,-60.8 156.2621,-54.8 162.2621,-48.8 168.2621,-48.8 168.2621,-48.8 238.8579,-48.8 238.8579,-48.8 244.8579,-48.8 250.8579,-54.8 250.8579,-60.8 250.8579,-60.8 250.8579,-72.8 250.8579,-72.8 250.8579,-78.8 244.8579,-84.8 238.8579,-84.8"/>
<text text-anchor="middle" x="203.56" y="-62.6" font-family="Verdana" font-size="14.00" fill="#000000">UserViewLoop</text>
</a>
</g>
</g>
<!-- command&#45;line&#45;arguments.main&#45;&gt;chat/client/ui.UserViewLoop -->
<g id="edge4" class="edge">
<title>command&#45;line&#45;arguments.main&#45;&gt;chat/client/ui.UserViewLoop</title>
<g id="a_edge4"><a xlink:title="at client.go:20: calling [chat/client/ui.UserViewLoop]">
<path fill="none" stroke="#8b4513" d="M53.3339,-196.7338C68.4579,-171.65 98.7927,-126.1655 135,-97.8 135.3985,-97.4878 135.8006,-97.178 136.2061,-96.8705"/>
<polygon fill="#8b4513" stroke="#8b4513" points="149.4202,-92.8443 156.1003,-84.6208 145.7499,-86.8837 149.4202,-92.8443"/>
<polyline fill="none" stroke="#8b4513" points="147.5851,-89.864 143.3275,-92.4856 "/>
<ellipse fill="none" stroke="#8b4513" cx="139.9214" cy="-94.5829" rx="4" ry="4"/>
</a>
</g>
</g>
<!-- chat/client/ui.UserInputLoop -->
<g id="node3" class="node">
<title>chat/client/ui.UserInputLoop</title>
<g id="a_node3"><a xlink:title="chat/client/ui.UserInputLoop | defined in main.go:21">
<path fill="#ffe4b5" stroke="#000000" stroke-width="1.5" d="M238.0914,-145.8C238.0914,-145.8 169.0286,-145.8 169.0286,-145.8 163.0286,-145.8 157.0286,-139.8 157.0286,-133.8 157.0286,-133.8 157.0286,-121.8 157.0286,-121.8 157.0286,-115.8 163.0286,-109.8 169.0286,-109.8 169.0286,-109.8 238.0914,-109.8 238.0914,-109.8 244.0914,-109.8 250.0914,-115.8 250.0914,-121.8 250.0914,-121.8 250.0914,-133.8 250.0914,-133.8 250.0914,-139.8 244.0914,-145.8 238.0914,-145.8"/>
<text text-anchor="middle" x="203.56" y="-123.6" font-family="Verdana" font-size="14.00" fill="#000000">UserInputLoop</text>
</a>
</g>
</g>
<!-- command&#45;line&#45;arguments.main&#45;&gt;chat/client/ui.UserInputLoop -->
<g id="edge5" class="edge">
<title>command&#45;line&#45;arguments.main&#45;&gt;chat/client/ui.UserInputLoop</title>
<g id="a_edge5"><a xlink:title="at client.go:23: calling [chat/client/ui.UserInputLoop]">
<path fill="none" stroke="#8b4513" d="M70.2368,-200.0416C95.1024,-186.5681 132.2567,-166.4359 161.0321,-150.8439"/>
<polygon fill="#8b4513" stroke="#8b4513" points="162.9293,-153.7967 170.0541,-145.9553 159.5944,-147.6422 162.9293,-153.7967"/>
</a>
</g>
</g>
<!-- (*os.File).WriteString -->
<g id="node4" class="node">
<title>(*os.File).WriteString</title>
<g id="a_node4"><a xlink:title="(*os.File).WriteString | defined in file.go:250">
<path fill="#adedad" stroke="#000000" stroke-width="1.5" d="M249.2554,-232.8C249.2554,-232.8 157.8646,-232.8 157.8646,-232.8 151.8646,-232.8 145.8646,-226.8 145.8646,-220.8 145.8646,-220.8 145.8646,-208.8 145.8646,-208.8 145.8646,-202.8 151.8646,-196.8 157.8646,-196.8 157.8646,-196.8 249.2554,-196.8 249.2554,-196.8 255.2554,-196.8 261.2554,-202.8 261.2554,-208.8 261.2554,-208.8 261.2554,-220.8 261.2554,-220.8 261.2554,-226.8 255.2554,-232.8 249.2554,-232.8"/>
<text text-anchor="middle" x="203.56" y="-210.6" font-family="Verdana" font-size="14.00" fill="#000000">(*File).WriteString</text>
</a>
</g>
</g>
<!-- command&#45;line&#45;arguments.main&#45;&gt;(*os.File).WriteString -->
<g id="edge1" class="edge">
<title>command&#45;line&#45;arguments.main&#45;&gt;(*os.File).WriteString</title>
<g id="a_edge1"><a xlink:title="at client.go:16: calling [(*os.File).WriteString]">
<path fill="none" stroke="#8b4513" d="M70.2368,-214.8C88.2401,-214.8 112.6854,-214.8 135.7282,-214.8"/>
<polygon fill="#8b4513" stroke="#8b4513" points="135.8405,-218.3001 145.8405,-214.8 135.8404,-211.3001 135.8405,-218.3001"/>
</a>
</g>
</g>
<!-- (*sync.WaitGroup).Add -->
<g id="node5" class="node">
<title>(*sync.WaitGroup).Add</title>
<g id="a_node5"><a xlink:title="(*sync.WaitGroup).Add | defined in waitgroup.go:62">
<path fill="#adedad" stroke="#000000" stroke-width="1.5" d="M248.9654,-319.8C248.9654,-319.8 158.1546,-319.8 158.1546,-319.8 152.1546,-319.8 146.1546,-313.8 146.1546,-307.8 146.1546,-307.8 146.1546,-295.8 146.1546,-295.8 146.1546,-289.8 152.1546,-283.8 158.1546,-283.8 158.1546,-283.8 248.9654,-283.8 248.9654,-283.8 254.9654,-283.8 260.9654,-289.8 260.9654,-295.8 260.9654,-295.8 260.9654,-307.8 260.9654,-307.8 260.9654,-313.8 254.9654,-319.8 248.9654,-319.8"/>
<text text-anchor="middle" x="203.56" y="-297.6" font-family="Verdana" font-size="14.00" fill="#000000">(*WaitGroup).Add</text>
</a>
</g>
</g>
<!-- command&#45;line&#45;arguments.main&#45;&gt;(*sync.WaitGroup).Add -->
<g id="edge2" class="edge">
<title>command&#45;line&#45;arguments.main&#45;&gt;(*sync.WaitGroup).Add</title>
<g id="a_edge2"><a xlink:title="at client.go:18: calling [(*sync.WaitGroup).Add]">
<path fill="none" stroke="#8b4513" d="M68.4176,-232.8896C86.482,-245.2951 111.5935,-261.6446 135,-273.8 138.7868,-275.7665 142.744,-277.6938 146.7637,-279.5589"/>
<polygon fill="#8b4513" stroke="#8b4513" points="145.6489,-282.8945 156.206,-283.7871 148.5098,-276.5058 145.6489,-282.8945"/>
</a>
</g>
</g>
<!-- (*sync.WaitGroup).Done -->
<g id="node6" class="node">
<title>(*sync.WaitGroup).Done</title>
<g id="a_node6"><a xlink:title="(*sync.WaitGroup).Done | defined in waitgroup.go:107">
<path fill="#adedad" stroke="#000000" stroke-width="1.5" d="M252.1801,-380.8C252.1801,-380.8 154.9399,-380.8 154.9399,-380.8 148.9399,-380.8 142.9399,-374.8 142.9399,-368.8 142.9399,-368.8 142.9399,-356.8 142.9399,-356.8 142.9399,-350.8 148.9399,-344.8 154.9399,-344.8 154.9399,-344.8 252.1801,-344.8 252.1801,-344.8 258.1801,-344.8 264.1801,-350.8 264.1801,-356.8 264.1801,-356.8 264.1801,-368.8 264.1801,-368.8 264.1801,-374.8 258.1801,-380.8 252.1801,-380.8"/>
<text text-anchor="middle" x="203.56" y="-358.6" font-family="Verdana" font-size="14.00" fill="#000000">(*WaitGroup).Done</text>
</a>
</g>
</g>
<!-- command&#45;line&#45;arguments.main&#45;&gt;(*sync.WaitGroup).Done -->
<g id="edge3" class="edge">
<title>command&#45;line&#45;arguments.main&#45;&gt;(*sync.WaitGroup).Done</title>
<g id="a_edge3"><a xlink:title="at client.go:19: calling [(*sync.WaitGroup).Done]">
<path fill="none" stroke="#8b4513" d="M53.2487,-233.0872C66.2176,-254.9949 90.5087,-292.2469 132.5767,-327.9004"/>
<polygon fill="#8b4513" stroke="#8b4513" points="143.8991,-341.2329 153.927,-344.6523 148.2202,-335.7258 143.8991,-341.2329"/>
<polyline fill="none" stroke="#8b4513" points="146.0596,-338.4794 142.126,-335.3929 "/>
<polygon fill="none" stroke="#8b4513" points="132.6851,-327.9854 139.8747,-328.5422 142.126,-335.3929 134.9364,-334.8361 132.6851,-327.9854"/>
</a>
</g>
</g>
</g>
</svg>
